<svg xmlns="http://www.w3.org/2000/svg" viewBox="0 0 85.52 81.83"><defs><style>.cls-1{fill:#f2f3f3;}.cls-2{fill:#211947;}</style></defs><title>portal_icon</title><g id="Layer_1" data-name="Layer 1"><circle class="cls-1" cx="42.76" cy="40.92" r="31.48"/></g><g id="Layer_2" data-name="Layer 2"><path class="cls-2" d="M22.6,63.82c1.45.65,2.9,0,4.35-.65a5.31,5.31,0,0,1,2.9-.81,6.66,6.66,0,0,1,1.94,1.45c1.13,1.13,2.42,2.42,4.19,2.58,1.61.16,3.06-1,4.35-1.77a5.54,5.54,0,0,1,2.26-1.29c.48,0,1.45.81,2.26,1.29a7.61,7.61,0,0,0,4,1.77h0c.16,0,.16,0,.65.16,1.77-.16,3.06-1.45,4.19-2.58.65-.65,1.45-1.45,1.94-1.45a5.31,5.31,0,0,1,2.9.81c1.45.48,2.9,1.13,4.35.65,3.55-1.29,3.39-4.84,3.39-6.45v-1l-.16-.65c-3.39-12.1-8.71-21.45-16.29-28.55a1.79,1.79,0,0,1-.65-1.77,6.6,6.6,0,0,1,2.1-2.9,1.26,1.26,0,0,0,.48-1.13c0-5.32-6.13-6.77-9-4-3.06-2.74-9-1.29-9,4a1.74,1.74,0,0,0,.48,1.13,6.6,6.6,0,0,1,2.1,2.9,1.92,1.92,0,0,1-.65,1.77c-7.58,7.1-12.9,16.45-16.29,28.55v.32a.59.59,0,0,0-.16.48v.65C19.22,59,19.05,62.53,22.6,63.82ZM38.89,19.3A2.07,2.07,0,0,1,41,21.56a1.61,1.61,0,0,0,3.23,0,2.07,2.07,0,0,1,2.1-2.26,2,2,0,0,1,1.94,1.61,10,10,0,0,0-2.42,3.55,4.51,4.51,0,0,0,1.77,5.16c.38.36.76.72,1.13,1.09H37c.32-.31.64-.63,1-.93a5.2,5.2,0,0,0,1.45-5.32A11.59,11.59,0,0,0,37,20.92,1.89,1.89,0,0,1,38.89,19.3ZM22.44,56.88v-.16c2.83-9.57,6.8-17.34,12.16-23.49H51.06c5.29,6.13,9.19,13.84,11.86,23.33v.81c0,2.1-.16,2.9-1.29,3.39-.32.16-1.45-.32-2.1-.65a7.94,7.94,0,0,0-4.68-1c-1.45.16-2.42,1.29-3.55,2.26C50.5,62.2,49.7,63,49.05,63a7.25,7.25,0,0,1-2.26-1.13c-1.29-.81-2.58-1.77-4.19-1.77h0a6.37,6.37,0,0,0-4,1.94,7.25,7.25,0,0,1-2.26,1.13c-.65,0-1.45-.81-2.26-1.61-1-1-2.1-2.1-3.55-2.26a7.94,7.94,0,0,0-4.68,1,7.41,7.41,0,0,1-2.1.65c-1.13-.48-1.29-1.29-1.29-3.39Z"/></g></svg>