<?xml version="1.0" encoding="utf-8"?>
<!-- Generator: Adobe Illustrator 21.1.0, SVG Export Plug-In . SVG Version: 6.00 Build 0)  -->
<svg version="1.1" xmlns="http://www.w3.org/2000/svg" xmlns:xlink="http://www.w3.org/1999/xlink" x="0px" y="0px"
	 viewBox="0 0 85.5 81.8" style="enable-background:new 0 0 85.5 81.8;" xml:space="preserve">
<style type="text/css">
	.st0{fill:#F2F3F3;}
	.st1{fill:#8BBEC7;}
	.st2{fill:#211947;}
</style>
<g id="Layer_1">
	<circle class="st0" cx="42.8" cy="40.9" r="31.5"/>
</g>
<g id="Layer_2">
	<g>
		<path class="st2" d="M45.8,63.7C34.9,63.7,26,54.9,26,44s8.9-19.8,19.8-19.8S65.6,33,65.6,44S56.7,63.7,45.8,63.7z M21.1,27.4
			l-1-2.9l6.3-6.3l2.9,1l1.6,7.4c-0.9,0.7-1.7,1.6-2.4,2.4L21.1,27.4z M45.8,21.1c-4.5,0-8.7,1.3-12.2,3.5l-1.5-6.9
			c-0.1-0.5-0.5-0.9-1-1.1l-4.6-1.5c-0.5-0.2-1.2,0-1.6,0.4l-7.6,7.6c-0.4,0.4-0.5,1-0.4,1.6l1.5,4.6c0.2,0.5,0.6,0.9,1.1,1l6.9,1.5
			C24.3,35.3,23,39.5,23,44c0,12.6,10.2,22.8,22.8,22.8S68.6,56.5,68.6,44S58.4,21.1,45.8,21.1L45.8,21.1z"/>
		<path class="st2" d="M45.8,57.7c-7.6,0-13.7-6.1-13.7-13.7s6.1-13.7,13.7-13.7S59.5,36.4,59.5,44S53.4,57.7,45.8,57.7z M45.8,27.2
			c-9.2,0-16.7,7.5-16.7,16.7s7.5,16.7,16.7,16.7S62.5,53.2,62.5,44S55,27.2,45.8,27.2z"/>
	</g>
</g>
</svg>
