<?xml version="1.0" encoding="utf-8"?>
<!-- Generator: Adobe Illustrator 21.1.0, SVG Export Plug-In . SVG Version: 6.00 Build 0)  -->
<svg version="1.1" id="Layer_1" xmlns="http://www.w3.org/2000/svg" xmlns:xlink="http://www.w3.org/1999/xlink" x="0px" y="0px"
	 viewBox="0 0 85.5 81.8" style="enable-background:new 0 0 85.5 81.8;" xml:space="preserve">
<style type="text/css">
	.st0{fill:#F2F3F3;}
	.st1{fill:#211947;}
</style>
<g id="Layer_1_2_">
	<circle class="st0" cx="42.8" cy="40.9" r="31.5"/>
</g>
<g>
	<path class="st1" d="M32.7,52.7"/>
	<path class="st1" d="M63.9,60.2c-0.3-0.1-5.1-1.9-13.3-2.7v-5.4c8-0.7,14.3-6.6,14.3-13.7c0-3.8-1.7-8.6-4.5-12.5
		c-3.3-4.6-7.3-7.2-11.3-7.2c-8.7,0-15.2,11.9-15.2,19.7c0,7.3,5.9,13.1,13.8,13.7v5.1c-0.9-0.1-1.8-0.1-2.7-0.1v-1.5h-1.5v1.5
		c-0.2,0-0.5,0-0.7,0c-0.3,0-0.5,0-0.7,0v-1.5h-1.5v1.5c-0.5,0-1,0-1.5,0v-1.5h-1.5v1.6c-1.3,0.1-2.4,0.2-3.6,0.3
		c0.7-1,1.1-2.3,1.1-3.8c0-2.9-1.7-11.5-6.8-11.5c-4.9,0-6.5,7.9-6.5,11.5c0,2.6,1,4.4,2.8,5.4c-2.1,0.6-3.1,1.1-3.2,1.1
		c-0.7,0.4-1,1.3-0.7,2c0.4,0.7,1.3,1,2,0.7c0.1,0,5.8-2.8,20-2.8c12.3,0,20.1,2.8,20.2,2.9c0.2,0.1,0.3,0.1,0.5,0.1
		c0.6,0,1.2-0.4,1.4-1C65.1,61.3,64.7,60.5,63.9,60.2z M29,58v-4.6c0.1,0,0.1-0.1,0.2-0.1l2.3-2.5c0.3-0.3,0.3-0.8,0-1
		c-0.3-0.3-0.8-0.3-1,0L29,51.3v-3c0-0.4-0.3-0.7-0.7-0.7c-0.4,0-0.7,0.3-0.7,0.7v5.9L26,52.7c-0.3-0.3-0.8-0.3-1,0
		c-0.3,0.3-0.3,0.8,0,1l2.5,2.5c0,0,0,0,0,0V58c-2.6-0.2-3.7-1.7-3.7-4.2c0-2.8,1.4-9.5,4.5-9.5s4.8,6.7,4.8,9.5
		C33.2,56.4,31.7,57.8,29,58z M49.1,25.6c-0.8,0-1.5,0.7-1.5,1.5v9.2l-5.3-4.5c-0.4-0.4-1-0.3-1.4,0.1c-0.4,0.4-0.3,1,0.1,1.4
		l6.5,5.6v5.9l-7.8-6.2c-0.4-0.3-1-0.3-1.4,0.2c-0.3,0.4-0.3,1,0.2,1.4l9,7.2v1.9c-6.2-0.6-10.8-5.1-10.8-10.8
		c0-6.5,5.6-16.7,12.2-16.7c3,0,6.3,2.2,8.9,5.9c2.4,3.4,4,7.7,4,10.8c0,5.5-5,10.1-11.3,10.7v-6.3l9-7.1c0.4-0.3,0.5-1,0.2-1.4
		c-0.3-0.4-1-0.5-1.4-0.2l-7.8,6.1v-5.9l5.1-4.1c0.4-0.3,0.5-1,0.1-1.4c-0.3-0.4-1-0.5-1.4-0.1l-3.8,3.1v-4.8
		C50.6,26.3,50,25.6,49.1,25.6z"/>
	<circle class="st1" cx="57" cy="42.9" r="1.5"/>
	<circle class="st1" cx="44.2" cy="27.6" r="1.5"/>
</g>
</svg>
