<?xml version="1.0" encoding="utf-8"?>
<!-- Generator: Adobe Illustrator 21.1.0, SVG Export Plug-In . SVG Version: 6.00 Build 0)  -->
<svg version="1.1" id="Layer_1" xmlns="http://www.w3.org/2000/svg" xmlns:xlink="http://www.w3.org/1999/xlink" x="0px" y="0px"
	 viewBox="0 0 85.5 81.8" style="enable-background:new 0 0 85.5 81.8;" xml:space="preserve">
<style type="text/css">
	.st0{fill:#F2F3F3;}
	.st1{fill:#211947;}
</style>
<g id="Layer_1_2_">
	<circle class="st0" cx="42.8" cy="40.9" r="31.5"/>
</g>
<g>
	<path class="st1" d="M69.3,38.1c1.3,0,2.3-1,2.3-2.3c0-1.3-1-2.3-2.3-2.3c-1.3,0-2.3,1-2.3,2.3C67,37.1,68,38.1,69.3,38.1z
		 M67.3,52.3c-2.3,0-4.2,1.9-4.2,4.2c0,2.3,1.9,4.2,4.2,4.2c2.3,0,4.2-1.9,4.2-4.2C71.5,54.2,69.6,52.3,67.3,52.3z M32.7,59.8
		c-1.4,0-2.6,1.2-2.6,2.6c0,1.4,1.2,2.6,2.6,2.6c1.4,0,2.6-1.2,2.6-2.6C35.3,61,34.1,59.8,32.7,59.8z M16,30.1l3.4-1.8l3.4,1.8
		l-0.7-3.8l2.8-2.7L21.2,23l-1.7-3.5L17.7,23l-3.9,0.6l2.8,2.7L16,30.1z M21.8,60.6l-1.7-3.5l-1.7,3.5l-3.9,0.6l2.8,2.7l-0.7,3.8
		l3.4-1.8l3.4,1.8l-0.7-3.8l2.8-2.7L21.8,60.6z M33,25.1c0.1,0,0.3,0,0.4-0.1c0.5-0.2,0.8-0.8,0.5-1.3c-0.3-0.8-0.3-1.6,0-2.5
		c0.5-1.2,1.6-2.3,3.2-3c3.2-1.4,3.1-5.2,2.6-7c-0.2-0.5-0.7-0.9-1.3-0.7c-0.5,0.2-0.9,0.7-0.7,1.3c0,0.1,1,3.6-1.4,4.6
		c-2,0.9-3.6,2.4-4.3,4.1c-0.5,1.3-0.5,2.8,0,4C32.2,24.9,32.6,25.1,33,25.1z M57.4,56.7c-0.5,0.2-0.9,0.7-0.7,1.3
		c0,0.1,1,3.6-1.4,4.6c-2,0.9-3.6,2.4-4.3,4.1c-0.5,1.3-0.5,2.8,0,4c0.2,0.4,0.5,0.6,0.9,0.6c0.1,0,0.3,0,0.4-0.1
		c0.5-0.2,0.8-0.8,0.5-1.3c-0.3-0.8-0.3-1.6,0-2.5c0.5-1.2,1.6-2.3,3.2-3c3.2-1.4,3.1-5.2,2.6-7C58.5,56.9,58,56.5,57.4,56.7z
		 M48.1,16.8h3.2V20c0,0.6,0.5,1,1,1c0.6,0,1-0.5,1-1v-3.2h3.2c0.6,0,1-0.5,1-1c0-0.6-0.5-1-1-1h-3.2v-3.2c0-0.6-0.5-1-1-1
		c-0.6,0-1,0.5-1,1v3.2h-3.2c-0.6,0-1,0.5-1,1C47.1,16.3,47.5,16.8,48.1,16.8z M58.7,21.8l-22.2,8.8c0,0,0,0,0,0l-19,7.5
		c-0.4,0.2-0.7,0.5-0.8,1c-0.1,0.4,0,0.9,0.4,1.2l24.9,25c0.3,0.3,0.6,0.4,1,0.4c0.1,0,0.2,0,0.3,0c0.4-0.1,0.8-0.4,1-0.8l7.5-19
		c0,0,0,0,0,0l4-10c0,0,0,0,0,0l4.8-12.3c0.2-0.5,0.1-1.1-0.3-1.5C59.8,21.7,59.2,21.6,58.7,21.8z M42.4,61.9l-22-22l6.7-2.6
		l17.9,18L42.4,61.9z M46.1,52.5L29.9,36.2l6.8-2.7l12.2,12.2L46.1,52.5z M49.9,42.9L39.4,32.4l7.2-2.9l6.1,6.1L49.9,42.9z
		 M53.9,32.9l-4.5-4.5l7.4-2.9L53.9,32.9z"/>
</g>
</svg>
