<?xml version="1.0" encoding="utf-8"?>
<!-- Generator: Adobe Illustrator 21.1.0, SVG Export Plug-In . SVG Version: 6.00 Build 0)  -->
<svg version="1.1" id="Layer_1" xmlns="http://www.w3.org/2000/svg" xmlns:xlink="http://www.w3.org/1999/xlink" x="0px" y="0px"
	 viewBox="0 0 85.5 81.8" style="enable-background:new 0 0 85.5 81.8;" xml:space="preserve">
<style type="text/css">
	.st0{fill:#F2F3F3;}
	.st1{fill:#211947;}
</style>
<g id="Layer_1_2_">
	<circle class="st0" cx="42.8" cy="40.9" r="31.5"/>
</g>
<path class="st1" d="M29.1,67.4C33.5,68.5,38,69,42.6,69c4.7,0,9.3-0.6,13.9-1.7c0.5-0.1,0.9-0.6,0.8-1.2c-1-9.7-2.9-19.3-5.7-28.7
	c1.8-1.1,3.2-2.8,4-4.7c1.3-3.5-1.5-10-2.3-11.6v-7.3c0-0.6-0.5-1.1-1.1-1.1s-1.1,0.5-1.1,1.1v6.8c-1.8,0.8-6.5,3.2-8.4,6
	c-1.9-2.8-6.6-5.2-8.4-6v-6.7c0-0.6-0.5-1.1-1.1-1.1s-1.1,0.5-1.1,1.1v7.2c-0.7,1.5-3.6,8.1-2.3,11.7c0.8,1.9,2.3,3.6,4,4.7
	c-2.7,9.4-4.6,19-5.7,28.7C28.2,66.7,28.6,67.2,29.1,67.4z M36.3,37.3c0.2-0.5-0.1-1.1-0.6-1.3c-1.6-0.9-2.9-2.3-3.7-4
	c-0.7-1.9,0.6-6.3,1.9-9.2c2.8,1.4,6.7,3.8,7.4,5.7c0.2,0.6,0.3,1.2,0.4,1.8c0,0.6,0.5,1,1.1,1c0.6,0,1.1-0.5,1.1-1
	c0-0.6,0.2-1.2,0.4-1.8c0.7-1.9,4.6-4.3,7.4-5.7c1.2,2.9,2.6,7.3,1.9,9.2c-0.8,1.7-2.1,3.1-3.7,4c-0.5,0.2-0.8,0.8-0.6,1.3
	c2.8,9.2,4.7,18.6,5.7,28.2c-8,1.8-16.4,1.8-24.4,0C31.7,55.9,33.6,46.5,36.3,37.3L36.3,37.3z"/>
</svg>
