<svg xmlns="http://www.w3.org/2000/svg" viewBox="0 0 85.52 81.83"><defs><style>.cls-1{fill:#f2f3f3;}.cls-2{fill:#211947;}</style></defs><title>portal_icon</title><g id="Layer_1" data-name="Layer 1"><circle class="cls-1" cx="42.76" cy="40.92" r="31.48"/></g><g id="Layer_2" data-name="Layer 2"><path class="cls-2" d="M25.37,50.48v7a1.74,1.74,0,0,0,1.74,1.74h5.22a1.74,1.74,0,0,0,1.74-1.74v-7.2c2.76,4.55,6.09,8.94,8.66,8.94h.85A78.59,78.59,0,0,0,61,57.26a3.43,3.43,0,0,0,2.66-3.12V47a1.74,1.74,0,0,0-.6-1.32c-1.24-1.08-4.77-2.16-9.84-2.16H51.46c-1.83,0-3.26-.42-3.91-1.15-.15-.17-.79-1-1.74-2.22C39.52,32.09,33.44,24.43,31.66,23a1.74,1.74,0,0,0-2.27.1c-.35.33-4.76,4.75-5.26,5.26a1.74,1.74,0,0,0,.3,2.7c3.5,2.22,8.41,6.5,8.38,9.09a1.77,1.77,0,0,1-.76,1.41c-2.91-1.07-4.76-1.87-6-2.41-.81-.35-1.4-.6-1.87-.76a1.74,1.74,0,0,0-1.9,2.76A15,15,0,0,1,25.37,50.48Zm2.71-21.13,2.51-2.51c3,3.27,10,12.22,12.48,15.46,1.05,1.35,1.76,2.25,1.88,2.38C46.3,46.2,48.55,47,51.46,47H53.2a19.58,19.58,0,0,1,7,1v5.85h0a77.56,77.56,0,0,1-17.29,1.83h0C41.52,55.35,37.78,50,34.55,44A5.19,5.19,0,0,0,36.3,40.2C36.34,35.93,31,31.47,28.07,29.35Zm2.51,15.39v11H28.84V50.48a19.73,19.73,0,0,0-1.22-6.89C28.46,43.93,29.44,44.31,30.58,44.74Z"/></g></svg>