<svg xmlns="http://www.w3.org/2000/svg" viewBox="0 0 85.52 81.83"><defs><style>.cls-1{fill:#f2f3f3;}.cls-2{fill:#211947;}</style></defs><title>portal_icon</title><g id="Layer_1" data-name="Layer 1"><circle class="cls-1" cx="42.76" cy="40.92" r="31.48"/></g><g id="Layer_2" data-name="Layer 2"><path class="cls-2" d="M47.07,29.28A12.89,12.89,0,1,0,59.78,42.17,12.82,12.82,0,0,0,47.07,29.28Zm0,22.79a9.9,9.9,0,1,1,9.72-9.9A9.79,9.79,0,0,1,47.07,52.06Z"/><path class="cls-2" d="M63.68,27.73h-3V27A4.73,4.73,0,0,0,56,22.25H38.11A4.73,4.73,0,0,0,33.43,27v.75H30.84V26.62a2,2,0,0,0-2-2H25.95a2,2,0,0,0-2,2v1.11H21.85a5.16,5.16,0,0,0-5.11,5.16V54.42a5.16,5.16,0,0,0,5.11,5.16H63.68a5.16,5.16,0,0,0,5.1-5.16h0V32.9A5.16,5.16,0,0,0,63.68,27.73Zm2.11,26.69a2.14,2.14,0,0,1-2.11,2.17H21.85a2.15,2.15,0,0,1-2.12-2.17V32.9a2.15,2.15,0,0,1,2.12-2.17H34.68a1.5,1.5,0,0,0,1.3-.41l0,0A1.49,1.49,0,0,0,36.42,29V27a1.72,1.72,0,0,1,1.69-1.74H56A1.72,1.72,0,0,1,57.71,27v2a1.49,1.49,0,0,0,.42,1.3l0,0a1.49,1.49,0,0,0,.59.36,1.54,1.54,0,0,0,.69.05h4.24a2.14,2.14,0,0,1,2.11,2.17Z"/><path class="cls-2" d="M30.72,32.91H22.94a1.49,1.49,0,0,0-1.5,1.5v6.06a1.49,1.49,0,0,0,1.5,1.5h7.79a1.49,1.49,0,0,0,1.5-1.5V34.4A1.5,1.5,0,0,0,30.72,32.91ZM29.23,39H24.43V35.9h4.79Z"/><path class="cls-2" d="M47.07,35.5h0a1.5,1.5,0,1,0,0,3h0a3.67,3.67,0,1,1-3.55,3.67,1.5,1.5,0,0,0-3,0v0a6.54,6.54,0,1,0,6.54-6.66Z"/></g></svg>