<svg xmlns="http://www.w3.org/2000/svg" viewBox="0 0 85.52 81.83"><defs><style>.cls-1{fill:#f2f3f3;}.cls-2{fill:#211947;}</style></defs><title>portal_icon</title><g id="Layer_1" data-name="Layer 1"><circle class="cls-1" cx="42.76" cy="40.92" r="31.48"/></g><g id="Layer_2" data-name="Layer 2"><polygon class="cls-2" points="39.41 54.37 25.15 54.51 56.95 60.31 63.45 24.31 55.34 22.85 55.34 25.71 60.03 26.48 54.51 57.1 39.41 54.37"/><path class="cls-2" d="M54.57,49.62V20.82A3.88,3.88,0,0,0,50.73,17H22.14a3.79,3.79,0,0,0-3.84,3.84v28.8a3.92,3.92,0,0,0,3.84,3.84H50.73A3.93,3.93,0,0,0,54.57,49.62ZM21.23,47V20.82a1,1,0,0,1,.91-.91H50.73a.87.87,0,0,1,.84.91V47Z"/><polygon class="cls-2" points="62.75 30.95 63.8 31.16 57.93 61.71 25.08 55.49 60.31 64.86 67.23 29 63.24 28.23 62.75 30.95"/></g></svg>