<svg xmlns="http://www.w3.org/2000/svg" viewBox="0 0 85.52 81.83"><defs><style>.cls-1{fill:#f2f3f3;}.cls-2{fill:#211947;}</style></defs><title>portal_icon</title><g id="Layer_1" data-name="Layer 1"><circle class="cls-1" cx="42.76" cy="40.92" r="31.48"/></g><g id="Layer_2" data-name="Layer 2"><path class="cls-2" d="M32.77,22.87H26.68a1.25,1.25,0,1,0,0,2.5h6.09a1.25,1.25,0,0,0,0-2.5Z"/><path class="cls-2" d="M32.77,26.62H26.68a1.25,1.25,0,1,0,0,2.5h6.09a1.25,1.25,0,0,0,0-2.5Z"/><path class="cls-2" d="M32.77,30.36H26.68a1.25,1.25,0,1,0,0,2.5h6.09a1.25,1.25,0,0,0,0-2.5Z"/><path class="cls-2" d="M32.77,34.1H26.68a1.25,1.25,0,1,0,0,2.5h6.09a1.25,1.25,0,0,0,0-2.5Z"/><path class="cls-2" d="M32.77,37.85H26.68a1.25,1.25,0,1,0,0,2.5h6.09a1.25,1.25,0,0,0,0-2.5Z"/><path class="cls-2" d="M32.77,41.59H26.68a1.25,1.25,0,1,0,0,2.5h6.09a1.25,1.25,0,0,0,0-2.5Z"/><path class="cls-2" d="M32.77,45.33H26.68a1.25,1.25,0,1,0,0,2.5h6.09a1.25,1.25,0,0,0,0-2.5Z"/><path class="cls-2" d="M32.77,49.08H26.68a1.25,1.25,0,1,0,0,2.5h6.09a1.25,1.25,0,0,0,0-2.5Z"/><path class="cls-2" d="M32.77,52.82H26.68a1.25,1.25,0,1,0,0,2.5h6.09a1.25,1.25,0,0,0,0-2.5Z"/><path class="cls-2" d="M32.77,56.56H26.68a1.25,1.25,0,1,0,0,2.5h6.09a1.25,1.25,0,0,0,0-2.5Z"/><path class="cls-2" d="M32.77,18.48H25.14A3.83,3.83,0,0,0,21.44,22a159.45,159.45,0,0,0,0,37.78,3.86,3.86,0,0,0,3.69,3.54h7.64A1.24,1.24,0,0,0,34,62.1a1.19,1.19,0,0,0-1.25-1.2H25.14a1.44,1.44,0,0,1-1.25-1.35,160.27,160.27,0,0,1,0-37.23A1.4,1.4,0,0,1,25.14,21h7.64a1.25,1.25,0,0,0,0-2.5Z"/><path class="cls-2" d="M63,59.36a6.22,6.22,0,0,0-5.19-9.68H54V42.19a1.44,1.44,0,0,0-.35-.9l-1.6-1.6,1.6-1.6a1.2,1.2,0,0,0,.35-.9V21a1.25,1.25,0,1,0-2.5,0V36.7l-1.3,1.25L49,36.7V21a1.25,1.25,0,1,0-2.5,0V37.2a1.44,1.44,0,0,0,.35.9l1.6,1.6-1.6,1.6a1.2,1.2,0,0,0-.35.9v7.49H42.76A6.24,6.24,0,1,0,49,55.91V42.69l1.25-1.25,1.25,1.25V55.91a6.24,6.24,0,0,0,6.24,6.24,6.35,6.35,0,0,0,3.44-1l1.9,1.9a1.33,1.33,0,0,0,1.8,0,1.3,1.3,0,0,0,0-1.75ZM46.5,55.91a3.74,3.74,0,1,1-3.74-3.74H46.5Zm11.23,3.74A3.77,3.77,0,0,1,54,55.91V52.17h3.74a3.74,3.74,0,1,1,0,7.49Z"/></g></svg>