<?xml version="1.0" encoding="utf-8"?>
<!-- Generator: Adobe Illustrator 21.1.0, SVG Export Plug-In . SVG Version: 6.00 Build 0)  -->
<svg version="1.1" id="Layer_1" xmlns="http://www.w3.org/2000/svg" xmlns:xlink="http://www.w3.org/1999/xlink" x="0px" y="0px"
	 viewBox="0 0 85.5 81.8" style="enable-background:new 0 0 85.5 81.8;" xml:space="preserve">
<style type="text/css">
	.st0{fill:#F2F3F3;}
	.st1{fill:#211947;}
</style>
<g id="Layer_1_3_">
	<circle class="st0" cx="42.8" cy="40.9" r="31.5"/>
</g>
<g>
	<g>
		<path class="st1" d="M61.3,66.4H24.4v-9.3h1.6c5.4,0,9.9-4.4,9.9-9.9v-7.1h3.3v7.1c0,6.7-5,12.2-11.5,13v2.8h30.2v-2.8
			c-6.5-0.8-11.5-6.4-11.5-13v-7.1h3.3v7.1c0,5.4,4.4,9.9,9.9,9.9h1.6L61.3,66.4L61.3,66.4z"/>
	</g>
	<path class="st1" d="M42.8,42.6c-10.2,0-18.5-8.3-18.5-18.5v-8.7h37v8.7C61.3,34.3,52.9,42.6,42.8,42.6z M27.5,18.7v5.4
		c0,8.4,6.8,15.2,15.2,15.2S58,32.5,58,24.1v-5.4H27.5z"/>
	<path class="st1" d="M37.6,45.8c1.6,0.5,3.4,0.8,5.2,0.8c1.9,0,3.7-0.3,5.4-0.9v-5.6H37.6V45.8z"/>
	<rect x="25.9" y="23.1" class="st1" width="33.7" height="3.3"/>
</g>
</svg>
