<svg xmlns="http://www.w3.org/2000/svg" viewBox="0 0 85.52 81.83"><defs><style>.cls-1{fill:#f2f3f3;}.cls-2{fill:#211947;}</style></defs><title>portal_icon</title><g id="Layer_1" data-name="Layer 1"><circle class="cls-1" cx="42.76" cy="40.92" r="31.48"/></g><g id="Layer_2" data-name="Layer 2"><path class="cls-2" d="M54.66,37.69c-4.5,0-8.16,3.19-8.16,7.08s3.66,7.08,8.16,7.08,8.17-3.17,8.17-7.08V19.71a1.87,1.87,0,0,0-2.23-1.83h0L36.8,22.54a1.86,1.86,0,0,0-1.51,1.83V51a9,9,0,0,0-4.43-1.14c-4.5,0-8.17,3.19-8.17,7.08S26.36,64,30.86,64,39,60.82,39,56.91v-24L59.09,29v9.85A9,9,0,0,0,54.66,37.69ZM30.86,60.26c-2.4,0-4.43-1.53-4.43-3.35s2-3.35,4.43-3.35,4.43,1.54,4.43,3.35S33.27,60.26,30.86,60.26ZM39,29.11v-3.2L59.09,22v3.2ZM59.09,44.76c0,1.81-2,3.35-4.43,3.35s-4.43-1.53-4.43-3.35,2-3.35,4.43-3.35S59.09,43,59.09,44.76Z"/></g></svg>