<svg xmlns="http://www.w3.org/2000/svg" viewBox="0 0 85.52 81.83"><defs><style>.cls-1{fill:#f2f3f3;}.cls-2{fill:#211947;}</style></defs><title>portal_icon</title><g id="Layer_1" data-name="Layer 1"><circle class="cls-1" cx="42.76" cy="40.92" r="31.48"/></g><g id="Layer_2" data-name="Layer 2"><path class="cls-2" d="M61.64,29.48H52.2V27.84c0-4.51-4.23-8.17-9.44-8.17s-9.44,3.66-9.44,8.17v1.63H23.88c-3.12,0-5.66,2.2-5.66,4.9V57.26c0,2.7,2.54,4.9,5.66,4.9H61.64c3.12,0,5.66-2.2,5.66-4.9V34.38C67.3,31.67,64.77,29.48,61.64,29.48ZM37.1,27.84c0-2.7,2.54-4.9,5.66-4.9s5.66,2.2,5.66,4.9v1.63H37.1ZM22,34.38a1.78,1.78,0,0,1,1.89-1.63h3.53A7.13,7.13,0,0,1,22,37.43Zm1.89,24.51A1.78,1.78,0,0,1,22,57.26V54.2a7.13,7.13,0,0,1,5.42,4.69Zm39.65-1.63a1.78,1.78,0,0,1-1.89,1.63H58.12a7.13,7.13,0,0,1,5.41-4.69Zm0-6.39c-4.73.69-8.47,3.93-9.27,8h-23c-.8-4.1-4.54-7.33-9.27-8V40.77c4.73-.69,8.47-3.93,9.27-8h23c.8,4.1,4.54,7.33,9.27,8Zm0-13.43a7.12,7.12,0,0,1-5.41-4.69h3.53a1.78,1.78,0,0,1,1.89,1.63Z"/><path class="cls-2" d="M53.15,44.18c-2.6,0-4.72,1.83-4.72,4.09s2.12,4.09,4.72,4.09,4.72-1.83,4.72-4.09S55.75,44.18,53.15,44.18Zm0,4.9a.83.83,0,1,1,.94-.82A.89.89,0,0,1,53.15,49.09Z"/><path class="cls-2" d="M43.07,42.28a2,2,0,0,0-2.39-1l-10.75,3.1a1.84,1.84,0,0,0-1.09.82,1.44,1.44,0,0,0-.1,1.25l2.39,6.2a1.73,1.73,0,0,0,.95.94,2.13,2.13,0,0,0,.84.17,2.19,2.19,0,0,0,.6-.08l10.75-3.1a1.82,1.82,0,0,0,1.09-.82,1.44,1.44,0,0,0,.1-1.25Zm-9,7.75-1.19-3.1,7.16-2.07L41.28,48Z"/><path class="cls-2" d="M54.09,40.92V36a1.77,1.77,0,0,0-1.89-1.63H46.54A1.77,1.77,0,0,0,44.65,36v4.9a1.77,1.77,0,0,0,1.89,1.63H52.2A1.77,1.77,0,0,0,54.09,40.92Zm-3.78-1.63H48.43V37.65h1.89Z"/></g></svg>