<svg xmlns="http://www.w3.org/2000/svg" viewBox="0 0 85.52 81.83"><defs><style>.cls-1{fill:#f2f3f3;}.cls-2{fill:#211947;}</style></defs><title>portal_icon</title><g id="Layer_1" data-name="Layer 1"><circle class="cls-1" cx="42.76" cy="40.92" r="31.48"/></g><g id="Layer_2" data-name="Layer 2"><path class="cls-2" d="M58.27,21.43a1.63,1.63,0,0,0-1.33-.66H28.45a1.63,1.63,0,0,0-1.19.66l-8.72,12a1.64,1.64,0,0,0,.12,2.08l22.9,25.06a1.67,1.67,0,0,0,.56.37l.12.05h0l.12.05h0l.29,0h0l.32,0,.29-.1h0a1.67,1.67,0,0,0,.41-.24h0l.17-.15L66.87,35.5A1.64,1.64,0,0,0,67,33.42ZM54.6,24,52,31.14,46.22,24Zm-5.47,8.72H36.39L42.76,25ZM39.3,24l-5.81,7.1L30.92,24ZM28.09,25.84l2.52,6.92H23.08ZM23.58,36h8.26L38,51.84ZM42.76,55,35.35,36H50.17Zm4.75-3.15L53.68,36h8.26Zm7.39-19.08,2.52-6.92,5,6.92Z"/></g></svg>