<svg xmlns="http://www.w3.org/2000/svg" viewBox="0 0 85.52 81.83"><defs><style>.cls-1{fill:#f2f3f3;}.cls-2{fill:#211947;}</style></defs><title>portal_icon</title><g id="Layer_1" data-name="Layer 1"><circle class="cls-1" cx="42.76" cy="40.92" r="31.48"/></g><g id="Layer_2" data-name="Layer 2"><circle class="cls-2" cx="40.08" cy="27.77" r="1.38"/><path class="cls-2" d="M41.12,33.15h0a6.08,6.08,0,0,0,.74-2.28c0-1-.8-1.09-1.78-1.09s-1.78.11-1.78,1.09A6.06,6.06,0,0,0,39,33.15c-2.15.82-3.77,4.15-3.77,8.13h9.62C44.89,37.3,43.28,34,41.12,33.15Z"/><circle class="cls-2" cx="47.36" cy="26.81" r="1.52"/><path class="cls-2" d="M44.48,29.64l1.21,5.71v5.93H49V35.35l1.22-5.76v-.05a.37.37,0,0,0,0-.06.48.48,0,0,0-.51-.44H48.52l-1.16,2.5L46.19,29H45a.48.48,0,0,0-.51.44.38.38,0,0,0,0,.06Z"/><path class="cls-2" d="M23.83,61.45a1.33,1.33,0,0,0,.1.19,1.56,1.56,0,0,0,.09.16l0,0a1,1,0,0,0,.16.13,1.16,1.16,0,0,0,.22.15l.13,0a1.28,1.28,0,0,0,.32.07H60.59a1.08,1.08,0,0,0,.23-.05,1.12,1.12,0,0,0,.23-.05,1,1,0,0,0,.14-.09,1.1,1.1,0,0,0,.27-.2l0,0a.86.86,0,0,0,.08-.15,1,1,0,0,0,.12-.21,1.76,1.76,0,0,0,0-.24c0-.05,0-.1,0-.16V39.17a1.3,1.3,0,0,0,0-.14h0a1,1,0,0,0,0-.22.94.94,0,0,0-.1-.21,1,1,0,0,0-.11-.18,1.29,1.29,0,0,0-.19-.17s0-.06-.09-.09l-4.71-2.89V22.77a3.16,3.16,0,0,0-3.15-3.16H32.18A3.16,3.16,0,0,0,29,22.77V35.28l-4.71,2.89-.09.09a.91.91,0,0,0-.18.17.87.87,0,0,0-.12.18,1.39,1.39,0,0,0-.1.2,1,1,0,0,0,0,.24.63.63,0,0,0,0,.12V61a1.34,1.34,0,0,0,0,.15A1.42,1.42,0,0,0,23.83,61.45Zm4.36-1.59L42.76,47.64,57.33,59.85ZM59.4,42.16V58.5L48.89,49.68ZM32.18,21.8H53.34a1,1,0,0,1,1,1V42.88L47,48.11l-4.25-3.57-4.25,3.57-7.3-5.23V22.77A1,1,0,0,1,32.18,21.8ZM26.12,42.15l10.52,7.53L26.12,58.5Z"/></g></svg>