<svg xmlns="http://www.w3.org/2000/svg" viewBox="0 0 85.52 81.83"><defs><style>.cls-1{fill:#f2f3f3;}.cls-2{fill:#211947;}</style></defs><title>portal_icon</title><g id="Layer_1" data-name="Layer 1"><circle class="cls-1" cx="42.76" cy="40.92" r="31.48"/></g><g id="Layer_2" data-name="Layer 2"><path class="cls-2" d="M42.76,54.19c10.48,0,18.68-4.18,18.68-9.52,0-3-3.89-5.69-5.41-6.61.25-1.31.53-2.59.8-3.83a49.23,49.23,0,0,0,1.55-10.93c0-4.25-7.86-6.47-15.63-6.47S27.13,19,27.13,23.29a49.22,49.22,0,0,0,1.55,10.93c.26,1.18.56,2.51.8,3.84-1.52.92-5.41,3.57-5.41,6.61C24.08,50,32.28,54.19,42.76,54.19ZM29.88,40.47c0,.35.09.71.13,1.07l.36,0h0l-.35.12a30.2,30.2,0,0,1,.16,3c0,3,4.82,4.94,12.58,4.94s12.58-1.89,12.58-4.94a29.84,29.84,0,0,1,.17-3l-.36,0h0l.37,0q.06-.54.13-1.07c2.15,1.44,3.55,3.09,3.55,4.19,0,3.87-7.68,7.27-16.44,7.27s-16.43-3.4-16.43-7.27C26.33,43.56,27.74,41.91,29.88,40.47ZM42.76,29.76c5.36,0,10.38-1.09,13.15-2.82a68.53,68.53,0,0,1-1.27,6.79c-.35,1.57-.69,3.12-1,4.69v.08c-.15.88-.27,1.72-.36,2.52a1.12,1.12,0,0,0,0,.25c0,1.06-3.61,3-10.52,3s-10.52-2-10.52-3a.78.78,0,0,0,0-.21c-.09-.84-.22-1.7-.36-2.52a.9.9,0,0,0,0-.2c-.28-1.58-.62-3.15-.95-4.61a69,69,0,0,1-1.27-6.79C32.38,28.67,37.4,29.76,42.76,29.76Zm0,16.8c4.32,0,8-.73,10.33-2,0,0,0,.09,0,.13,0,.94-3,2.69-10.33,2.69s-10.33-1.75-10.33-2.69c0,0,0-.09,0-.13C34.74,45.83,38.44,46.56,42.76,46.56ZM29.38,23.29c0-1.76,5.09-4.22,13.38-4.22s13.38,2.46,13.38,4.22-5.09,4.22-13.38,4.22S29.38,25.05,29.38,23.29Z"/><path class="cls-2" d="M35,66.71c2,0,4.07-1.65,5.05-2.58a4.41,4.41,0,0,0,2.74.74,4.41,4.41,0,0,0,2.73-.74c1,.93,3,2.57,5.05,2.57a3.37,3.37,0,0,0,2.18-.78c1.27-1,1.53-3.3,1.53-5s-.27-4-1.54-5c-2.59-2.11-5.94.58-7.23,1.8A4.41,4.41,0,0,0,42.77,57a4.42,4.42,0,0,0-2.74.74c-1.29-1.22-4.64-3.9-7.23-1.8-1.27,1-1.54,3.3-1.54,5h0c0,1.72.27,4,1.54,5A3.39,3.39,0,0,0,35,66.71Zm4-7.36a5.15,5.15,0,0,1-1.7-.52.86.86,0,0,0-1.18.3.86.86,0,0,0,.3,1.19,6.61,6.61,0,0,0,2.12.71,4.31,4.31,0,0,0-1,.39.86.86,0,0,0-.31,1.18.89.89,0,0,0,1.17.32,2.8,2.8,0,0,1,.68-.24h0c-.69.69-3.49,3.26-5.15,1.91-.56-.46-.9-1.83-.9-3.68s.34-3.22.9-3.68A1.71,1.71,0,0,1,35,56.86c1.58,0,3.48,1.74,4,2.29Zm1.54,1.56c0-1.91.69-2.23,2.25-2.23S45,59,45,60.91s-.69,2.23-2.25,2.23S40.51,62.82,40.51,60.91Zm6,1.76a2.94,2.94,0,0,1,.67.24h0l.09,0a.87.87,0,0,0,1.08-.36A.86.86,0,0,0,48,61.41,4.48,4.48,0,0,0,47,61a6.3,6.3,0,0,0,2.12-.72.86.86,0,0,0-.88-1.49,5.15,5.15,0,0,1-1.71.52l-.06-.21c.69-.68,3.51-3.24,5.15-1.91.56.46.9,1.83.9,3.68s-.34,3.22-.9,3.68c-1.64,1.33-4.45-1.22-5.15-1.91Z"/></g></svg>