<?xml version="1.0" encoding="utf-8"?>
<!-- Generator: Adobe Illustrator 21.1.0, SVG Export Plug-In . SVG Version: 6.00 Build 0)  -->
<svg version="1.1" xmlns="http://www.w3.org/2000/svg" xmlns:xlink="http://www.w3.org/1999/xlink" x="0px" y="0px"
	 viewBox="0 0 85.5 81.8" style="enable-background:new 0 0 85.5 81.8;" xml:space="preserve">
<style type="text/css">
	.st0{fill:#F2F3F3;}
	.st1{fill:#8BBEC7;}
	.st2{fill:#211947;}
</style>
<g id="Layer_1">
	<circle class="st0" cx="42.8" cy="40.9" r="31.5"/>
</g>
<g id="Layer_2">
	<path class="st2" d="M36.1,54.2c-0.6,0-1.1,0.5-1.1,1.1c0,0.6,0.5,1.1,1.1,1.1c0.6,0,1.1-0.5,1.1-1.1
		C37.2,54.7,36.7,54.2,36.1,54.2z M46.1,47.6h10v5.5h-10V47.6z M29.5,47.6h8.9v15.5h-8.9V47.6z M45,45.4c-0.6,0-1.1,0.5-1.1,1.1v7.8
		c0,0.6,0.5,1.1,1.1,1.1h12.2c0.6,0,1.1-0.5,1.1-1.1v-7.8c0-0.6-0.5-1.1-1.1-1.1H45z M27.8,39.2c1.1,1.6,2.9,2.8,5,2.8
		c2.1,0,3.9-1.2,5-2.8c1.1,1.6,2.9,2.8,5,2.8c2.1,0,3.9-1.2,5-2.8c1.1,1.6,2.9,2.8,5,2.8c2.1,0,3.9-1.2,5-2.8c1.1,1.6,2.9,2.8,5,2.8
		v21H40.6V46.5c0-0.6-0.5-1.1-1.1-1.1H28.4c-0.6,0-1.1,0.5-1.1,1.1v16.6h-4.4V42C24.9,42,26.7,40.9,27.8,39.2L27.8,39.2z M23.4,26.5
		h38.7l4.5,7v2.5c0,2.2-1.7,3.9-3.9,3.9c-2.2,0-3.9-1.7-3.9-3.9h-2.2c0,2.2-1.7,3.9-3.9,3.9c-2.2,0-3.9-1.7-3.9-3.9h-2.2
		c0,2.2-1.7,3.9-3.9,3.9c-2.2,0-3.9-1.7-3.9-3.9h-2.2c0,2.2-1.7,3.9-3.9,3.9c-2.2,0-3.9-1.7-3.9-3.9h-2.2c0,2.2-1.7,3.9-3.9,3.9
		c-2.2,0-3.9-1.7-3.9-3.9v-2.5L23.4,26.5z M24.5,18.8h36.6v5.6H24.5V18.8z M23.4,16.5c-0.6,0-1.1,0.5-1.1,1.1v6.7
		c-2.2,3.3-3.8,6.2-5.5,8.9v2.8c0,2.6,1.6,4.8,3.9,5.7v22.6c0,0.6,0.5,1.1,1.1,1.1h42.1c0.6,0,1.1-0.5,1.1-1.1V41.6
		c2.3-0.9,3.9-3.1,3.9-5.7v-2.8l-5.5-8.9v-6.7c0-0.6-0.5-1.1-1.1-1.1H23.4z"/>
</g>
</svg>
