<svg xmlns="http://www.w3.org/2000/svg" viewBox="0 0 85.52 81.83"><defs><style>.cls-1{fill:#f2f3f3;}.cls-2{fill:#211947;}</style></defs><title>portal_icon</title><g id="Layer_1" data-name="Layer 1"><circle class="cls-1" cx="42.76" cy="40.92" r="31.48"/></g><g id="Layer_2" data-name="Layer 2"><path class="cls-2" d="M67.73,58.65H66.29V47.9a5.38,5.38,0,0,0-5.38-5.38H59.34V33.4a5,5,0,0,0-4.95-4.95H47.14a5.07,5.07,0,0,0,.74-2.64,5.12,5.12,0,1,0-10.24,0,5.07,5.07,0,0,0,.74,2.64H31.13a5,5,0,0,0-4.95,4.95v9.12H24.62a5.38,5.38,0,0,0-5.38,5.38V58.65H17.79a1.24,1.24,0,1,0,0,2.48H67.73a1.24,1.24,0,1,0,0-2.48Zm-25-35.47a2.64,2.64,0,1,1-2.64,2.64A2.64,2.64,0,0,1,42.76,23.18ZM28.67,33.4a2.47,2.47,0,0,1,2.47-2.47H54.39a2.47,2.47,0,0,1,2.47,2.47v2.08H28.67Zm0,4.57H56.86v4.55H28.67ZM63.8,58.65H21.72V52a5.14,5.14,0,0,1,1.14.8,5.68,5.68,0,0,0,8,0,3.24,3.24,0,0,1,4.77,0,5.68,5.68,0,0,0,8,0,3.24,3.24,0,0,1,4.77,0,5.69,5.69,0,0,0,8,0,3.24,3.24,0,0,1,4.77,0,6,6,0,0,0,2.74,1.5Zm0-7a5.15,5.15,0,0,1-1.15-.8,5.69,5.69,0,0,0-8,0,3.24,3.24,0,0,1-4.77,0,5.68,5.68,0,0,0-8,0,3.24,3.24,0,0,1-4.77,0,5.68,5.68,0,0,0-8,0,3.24,3.24,0,0,1-4.76,0,6.07,6.07,0,0,0-2.74-1.5V47.89a2.9,2.9,0,0,1,2.9-2.9H60.91a2.9,2.9,0,0,1,2.9,2.9Z"/></g></svg>