<?xml version="1.0" encoding="utf-8"?>
<!-- Generator: Adobe Illustrator 21.1.0, SVG Export Plug-In . SVG Version: 6.00 Build 0)  -->
<svg version="1.1" xmlns="http://www.w3.org/2000/svg" xmlns:xlink="http://www.w3.org/1999/xlink" x="0px" y="0px"
	 viewBox="0 0 85.5 81.8" style="enable-background:new 0 0 85.5 81.8;" xml:space="preserve">
<style type="text/css">
	.st0{fill:#F2F3F3;}
	.st1{fill:#8BBEC7;}
	.st2{fill:#211947;}
</style>
<g id="Layer_1">
	<circle class="st0" cx="42.8" cy="40.9" r="31.5"/>
</g>
<g id="Layer_2">
	<path class="st2" d="M62.6,39.7c-0.7,0.8-1.9,0.9-2.7,0.2l-15-12.8c-1.2-1.1-3.1-1.1-4.3,0l-15,12.8c-0.8,0.6-2,0.5-2.6-0.3
		c-0.7-0.8-0.6-1.9,0.1-2.7l19.6-16.8L62.4,37C63.2,37.7,63.3,38.9,62.6,39.7L62.6,39.7z M55.3,61.6h-6v-7.4c-0.1-3.5-3-6.4-6.6-6.4
		c-3.5,0-6.5,2.8-6.6,6.4v7.4h-6c-1.2,0-2.2-1-2.2-2.2V42.3l14.8-12.6l14.8,12.6v17.1c0,0.6-0.2,1.2-0.6,1.6
		C56.5,61.4,55.9,61.6,55.3,61.6L55.3,61.6z M46,61.6h-6.5v-7.4c0.1-1.7,1.5-3.1,3.2-3.1s3.2,1.4,3.2,3.1L46,61.6z M52.6,22.5
		c0-0.9,0.7-1.6,1.6-1.6c0.9,0,1.6,0.7,1.6,1.6V27l-3.1-2.7L52.6,22.5z M64.5,34.5L59,29.8v-7.3c0-2.5-1.9-4.6-4.4-4.8
		c-2.5-0.2-4.8,1.4-5.3,3.9l-4.5-3.8c-1.2-1.1-3.1-1.1-4.3,0L21,34.5c-1.6,1.4-2.2,3.6-1.6,5.6c0.7,2,2.4,3.4,4.5,3.6h0.4h0.3
		l0,15.7c0,1.5,0.6,2.9,1.6,3.9s2.4,1.6,3.9,1.6h25.1c1.5,0,2.9-0.6,3.9-1.6c1-1,1.6-2.4,1.6-3.9V43.7c2.3,0.1,4.3-1.2,5.2-3.3
		C66.9,38.3,66.3,35.9,64.5,34.5L64.5,34.5z"/>
</g>
</svg>
